<svg width="173" height="35" viewBox="0 0 173 35" fill="none" xmlns="http://www.w3.org/2000/svg">
<path d="M12.325 31.24C8.19167 31.24 5.15167 30.1867 3.205 28.08C1.285 25.9733 0.325 23.2 0.325 19.76C0.325 16.2933 0.911667 13.1467 2.085 10.32C3.285 7.46667 5.05833 5.13333 7.405 3.32C9.75167 1.48 12.285 0.559999 15.005 0.559999C17.7517 0.559999 19.8983 1.22667 21.445 2.56C23.0183 3.86666 23.805 5.64 23.805 7.88C23.805 10.0933 23.1117 11.9333 21.725 13.4C20.365 14.8667 18.765 15.6 16.925 15.6C15.085 15.6 13.6583 15.2 12.645 14.4C11.6317 13.5733 11.125 12.7067 11.125 11.8C11.125 10.8667 11.485 10.1467 12.205 9.64C12.9517 9.10667 14.0317 8.84 15.445 8.84C15.0983 9.18667 14.925 9.65333 14.925 10.24C14.925 10.8 15.0983 11.2933 15.445 11.72C15.7917 12.1467 16.325 12.36 17.045 12.36C17.765 12.36 18.485 11.9867 19.205 11.24C19.925 10.4667 20.285 9.45333 20.285 8.2C20.285 6.94666 19.8983 5.94666 19.125 5.2C18.3783 4.45333 17.3117 4.08 15.925 4.08C14.1117 4.08 12.4583 4.81333 10.965 6.28C9.49833 7.74667 8.37833 9.61333 7.605 11.88C6.83167 14.1467 6.445 16.5333 6.445 19.04C6.445 21.2 6.91167 23.1067 7.845 24.76C8.325 25.6133 9.03167 26.2933 9.965 26.8C10.925 27.3067 12.045 27.56 13.325 27.56C15.5117 27.56 17.6183 26.8667 19.645 25.48C21.6717 24.0667 23.3783 22.2533 24.765 20.04L26.125 22.48C24.5517 25.04 22.5783 27.1467 20.205 28.8C17.8317 30.4267 15.205 31.24 12.325 31.24ZM33.9328 11.76C36.3861 11.76 38.4261 12.5467 40.0528 14.12C41.7061 15.6933 42.5328 17.6133 42.5328 19.88C42.5328 23.32 41.5195 26.08 39.4928 28.16C37.4928 30.2133 35.0661 31.24 32.2128 31.24C29.3595 31.24 27.0928 30.4267 25.4128 28.8C23.7595 27.1733 22.9328 25.16 22.9328 22.76C22.9328 19.4 23.9595 16.7333 26.0128 14.76C28.0928 12.76 30.7328 11.76 33.9328 11.76ZM33.1328 15C31.8795 15 30.8261 15.72 29.9728 17.16C29.1195 18.6 28.6528 20.4133 28.5728 22.6C28.5728 24.1467 28.8795 25.4267 29.4928 26.44C30.1328 27.4533 31.0928 27.96 32.3728 27.96C33.6528 27.96 34.7195 27.2533 35.5728 25.84C36.4528 24.4267 36.8928 22.8133 36.8928 21C36.8928 19.1867 36.5861 17.7467 35.9728 16.68C35.3595 15.56 34.4128 15 33.1328 15ZM55.6341 26.52L56.5941 17.6C56.5941 16.88 56.4074 16.28 56.0341 15.8C55.6607 15.32 55.0341 15.08 54.1541 15.08C53.3007 15.08 52.5674 15.4667 51.9541 16.24C51.3674 16.9867 50.9941 17.9333 50.8341 19.08C49.8741 26.3867 49.3674 30.36 49.3141 31H43.9141L46.1141 12.16C47.2341 11.8667 48.0874 11.72 48.6741 11.72C50.4607 11.72 51.3941 12.3733 51.4741 13.68C52.7807 12.4 54.3407 11.76 56.1541 11.76C57.9941 11.76 59.4341 12.2133 60.4741 13.12C61.5141 14.0267 62.0341 15.1733 62.0341 16.56C62.0341 16.9333 61.9541 17.64 61.7941 18.68C61.1807 22.7333 60.8741 25.0933 60.8741 25.76C60.8741 26.9867 61.2874 27.6 62.1141 27.6C63.9274 27.6 65.3007 25.7067 66.2341 21.92C67.1407 22.88 67.6874 23.64 67.8741 24.2C66.4607 28.8933 64.0074 31.24 60.5141 31.24C58.8607 31.24 57.6341 30.7333 56.8341 29.72C56.0341 28.7067 55.6341 27.64 55.6341 26.52ZM81.6963 18.76C83.8029 20.3067 84.8563 22.1333 84.8563 24.24C84.8563 26.3467 84.0296 28.04 82.3763 29.32C80.7229 30.6 78.6429 31.24 76.1363 31.24C74.5096 31.24 73.1496 30.84 72.0563 30.04C70.9896 29.2133 70.4563 28.2 70.4563 27C70.4563 25.8 70.8563 24.8533 71.6563 24.16C72.4563 23.44 73.4563 23 74.6563 22.84C74.0963 23.64 73.8163 24.4133 73.8163 25.16C73.8163 25.88 74.0696 26.4667 74.5763 26.92C75.0829 27.3733 75.7229 27.6 76.4963 27.6C77.2696 27.6 77.9096 27.32 78.4163 26.76C78.9229 26.1733 79.1763 25.5067 79.1763 24.76C79.1763 23.5333 78.6029 22.44 77.4563 21.48C76.7629 20.92 76.0163 20.4 75.2163 19.92C74.4163 19.4133 73.9896 19.1467 73.9362 19.12C73.8296 19.04 73.7229 18.9733 73.6163 18.92C73.1363 19.48 72.4429 20.2533 71.5363 21.24C70.6296 22.2 69.9096 22.9733 69.3763 23.56C67.8829 25.1867 67.0429 26.5467 66.8563 27.64C66.8029 27.8533 66.7763 28.2667 66.7763 28.88C66.7763 29.4667 66.9496 30.08 67.2963 30.72C67.6696 31.36 68.1096 31.84 68.6163 32.16C69.1229 32.48 69.6163 32.7333 70.0963 32.92C70.6029 33.1333 71.0296 33.28 71.3763 33.36C71.7496 33.44 71.9363 33.4933 71.9363 33.52C71.9363 33.7067 71.6429 33.92 71.0563 34.16C69.9629 34.56 68.8163 34.76 67.6163 34.76C66.4429 34.76 65.2963 34.3333 64.1763 33.48C62.6562 32.3067 61.8962 30.7467 61.8962 28.8C61.8962 27.6 62.2029 26.4133 62.8162 25.24C63.9096 23.16 66.4696 20.3067 70.4963 16.68C69.5096 15.6933 69.0163 14.64 69.0163 13.52C69.0163 12.4 69.4296 11.4533 70.2563 10.68C71.1096 9.90667 72.1096 9.52 73.2563 9.52C74.2963 9.52 75.2029 9.93333 75.9763 10.76C76.4829 11.32 76.7363 12.0267 76.7363 12.88C76.7363 13.7333 76.4563 14.6933 75.8963 15.76C78.7496 17.04 80.6829 18.04 81.6963 18.76ZM73.0163 14.24C73.6563 13.5733 73.9763 13.0933 73.9763 12.8C73.9763 12.1333 73.6829 11.7733 73.0963 11.72C72.4296 11.72 72.0963 12.0933 72.0963 12.84C72.0963 13.2933 72.4029 13.76 73.0163 14.24ZM103.402 12.16C102.309 20.8 101.762 25.4 101.762 25.96C101.762 27.0267 102.149 27.56 102.922 27.56C103.616 27.56 104.362 27.0933 105.162 26.16C105.989 25.2 106.642 23.7733 107.122 21.88C108.002 22.84 108.536 23.5867 108.722 24.12C108.109 26.7067 107.136 28.5333 105.802 29.6C104.469 30.6667 103.096 31.2 101.682 31.2C99.3622 31.2 97.8022 30.3067 97.0022 28.52C95.6155 30.3067 93.7622 31.2 91.4422 31.2C89.5222 31.2 88.0422 30.72 87.0022 29.76C85.9622 28.8 85.4422 27.5467 85.4422 26C85.4422 25.6267 85.5089 24.9733 85.6422 24.04C86.2555 19.08 86.7222 15.1333 87.0422 12.2C87.8689 11.9067 88.6289 11.76 89.3222 11.76C90.0155 11.76 90.5355 11.7867 90.8822 11.84C91.2289 11.8933 91.5622 12.0933 91.8822 12.44C92.2022 12.7867 92.3622 13.28 92.3622 13.92L91.0422 24.12C90.9889 24.44 90.9622 24.7333 90.9622 25C90.9622 26.5733 91.6822 27.36 93.1222 27.36C94.4555 27.36 95.5622 26.7067 96.4422 25.4C96.4422 25.1067 96.4689 24.64 96.5222 24L97.8422 13.36C98.0289 12.9067 98.4289 12.5333 99.0422 12.24C99.6555 11.92 100.416 11.76 101.322 11.76C102.256 11.76 102.949 11.8933 103.402 12.16ZM111.196 31.28C109.569 31.28 108.289 30.8267 107.356 29.92C106.422 28.9867 105.956 27.72 105.956 26.12C105.956 25.6933 106.676 19.36 108.116 7.12C108.489 3.97333 109.489 1.98667 111.116 1.16C111.862 0.759998 112.756 0.559999 113.796 0.559999C117.316 0.559999 119.076 2.18666 119.076 5.44C119.076 5.70667 119.062 5.98667 119.036 6.28C118.769 9.85333 116.529 13.4933 112.316 17.2C112.182 18.5067 112.036 19.7733 111.876 21C111.556 23.7467 111.396 25.2667 111.396 25.56C111.396 26.9467 111.996 27.64 113.196 27.64C114.502 27.64 115.716 26.8933 116.836 25.4C117.982 23.88 118.862 21.9467 119.476 19.6C119.716 19.68 120.049 19.9067 120.476 20.28C120.902 20.6267 121.196 20.9333 121.356 21.2C120.929 23.4133 119.969 25.5333 118.476 27.56C117.729 28.6 116.782 29.4533 115.636 30.12C114.329 30.8933 112.849 31.28 111.196 31.28ZM112.756 13.2C115.209 10.5067 116.436 8.09333 116.436 5.96C116.436 4.68 115.956 4.04 114.996 4.04C114.382 4.09333 113.969 4.49333 113.756 5.24C113.569 5.98666 113.382 7.2 113.196 8.88C113.036 10.56 112.929 11.6 112.876 12L112.756 13.2Z" fill="#2071EF"/>
<path d="M127.102 3.16C127.102 3.32 126.742 6.18666 126.022 11.76H131.902V14.84H125.622L125.502 15.84C128.622 18.4533 130.182 21.3067 130.182 24.4C130.182 26.8267 129.556 28.5733 128.302 29.64C127.076 30.7067 125.596 31.24 123.862 31.24C122.129 31.24 120.862 30.7867 120.062 29.88C119.262 28.9467 118.862 27.8267 118.862 26.52C118.862 26.2267 118.889 25.9067 118.942 25.56L120.182 14.92L120.022 14.84H116.782C116.756 14.5733 116.742 14.1467 116.742 13.56C116.742 12.9467 116.862 12.3467 117.102 11.76H120.542L121.822 0.879999C122.382 0.666665 123.129 0.559999 124.062 0.559999C126.089 0.559999 127.102 1.42667 127.102 3.16ZM127.502 24.36C127.502 22.52 126.702 20.7067 125.102 18.92C124.622 22.8933 124.382 25.1867 124.382 25.8C124.382 27 124.769 27.6 125.542 27.6C126.102 27.6 126.569 27.3467 126.942 26.84C127.316 26.3067 127.502 25.48 127.502 24.36ZM139.252 22.04C140.906 21.6933 142.132 21.0267 142.932 20.04C143.759 19.0533 144.172 18.1067 144.172 17.2C144.172 16.2667 143.919 15.64 143.412 15.32C142.932 14.9733 142.399 14.8 141.812 14.8C140.559 14.8 139.452 15.5067 138.492 16.92C137.559 18.3067 137.092 19.9733 137.092 21.92C137.092 23.84 137.546 25.28 138.452 26.24C139.386 27.1733 140.532 27.64 141.892 27.64C143.892 27.64 145.812 26.9467 147.652 25.56C149.492 24.1733 150.986 22.36 152.132 20.12C152.719 20.68 153.252 21.3733 153.732 22.2C152.852 24.2 151.292 26.16 149.052 28.08C147.932 29.0133 146.599 29.7733 145.052 30.36C143.532 30.9467 141.959 31.24 140.332 31.24C137.666 31.24 135.559 30.4267 134.012 28.8C132.359 27.04 131.532 24.7867 131.532 22.04C131.532 19.2933 132.559 16.8933 134.612 14.84C136.692 12.7867 139.172 11.76 142.052 11.76C144.106 11.76 145.772 12.2133 147.052 13.12C148.332 14 148.986 15.2 149.012 16.72C149.012 18.7733 148.186 20.44 146.532 21.72C144.906 23 142.666 23.8933 139.812 24.4L139.252 22.04ZM162.965 17.44C162.965 15.7067 162.192 14.84 160.645 14.84C159.498 14.84 158.472 15.4933 157.565 16.8C156.605 18.2133 156.125 19.8667 156.125 21.76C156.125 23.6533 156.538 25.12 157.365 26.16C158.218 27.1733 159.378 27.68 160.845 27.68C162.605 27.68 164.458 26.96 166.405 25.52C168.378 24.08 169.965 22.2933 171.165 20.16C171.698 20.56 172.218 21.2933 172.725 22.36C171.952 23.9067 170.512 25.64 168.405 27.56C167.312 28.5733 165.952 29.4267 164.325 30.12C162.565 30.8667 160.805 31.24 159.045 31.24C156.672 31.24 154.658 30.4267 153.005 28.8C151.378 27.1733 150.565 25.0533 150.565 22.44C150.565 19.2667 151.632 16.6933 153.765 14.72C155.898 12.7467 158.285 11.76 160.925 11.76C162.978 11.76 164.605 12.1867 165.805 13.04C167.005 13.8933 167.605 15.0133 167.605 16.4C167.605 17.3067 167.285 18.0933 166.645 18.76C165.472 19.9333 164.045 20.52 162.365 20.52C162.765 19.1867 162.965 18.16 162.965 17.44Z" fill="#FBFBFB"/>
</svg>
